<svg xmlns="http://www.w3.org/2000/svg" xmlns:xlink="http://www.w3.org/1999/xlink" width="500" zoomAndPan="magnify" viewBox="0 0 375 374.999991" height="500" preserveAspectRatio="xMidYMid meet" version="1.0"><defs><g/><clipPath id="3cee537a4a"><path d="M 75 159 L 101 159 L 101 177 L 75 177 Z M 75 159 " clip-rule="nonzero"/></clipPath><clipPath id="f33a79a62c"><path d="M 72.03125 171.71875 L 97.449219 154.40625 L 108.003906 169.90625 L 82.585938 187.214844 Z M 72.03125 171.71875 " clip-rule="nonzero"/></clipPath><clipPath id="a752370f6c"><path d="M 72.03125 171.71875 L 97.449219 154.40625 L 108.003906 169.90625 L 82.585938 187.214844 Z M 72.03125 171.71875 " clip-rule="nonzero"/></clipPath><clipPath id="e0b6908d67"><path d="M 72.070312 171.691406 L 97.433594 154.417969 L 103.800781 163.761719 L 78.4375 181.039062 Z M 72.070312 171.691406 " clip-rule="nonzero"/></clipPath><clipPath id="94e2fa5f79"><path d="M 72.070312 171.691406 L 97.410156 154.433594 L 103.773438 163.78125 L 78.4375 181.039062 Z M 72.070312 171.691406 " clip-rule="nonzero"/></clipPath><clipPath id="06260fec31"><path d="M 83 166 L 99 166 L 99 179 L 83 179 Z M 83 166 " clip-rule="nonzero"/></clipPath><clipPath id="f89a6f6618"><path d="M 72.03125 171.71875 L 97.449219 154.40625 L 108.003906 169.90625 L 82.585938 187.214844 Z M 72.03125 171.71875 " clip-rule="nonzero"/></clipPath><clipPath id="03547effc8"><path d="M 72.03125 171.71875 L 97.449219 154.40625 L 108.003906 169.90625 L 82.585938 187.214844 Z M 72.03125 171.71875 " clip-rule="nonzero"/></clipPath><clipPath id="cc4a31907a"><path d="M 80 174 L 88 174 L 88 185 L 80 185 Z M 80 174 " clip-rule="nonzero"/></clipPath><clipPath id="1e03b95d1c"><path d="M 72.03125 171.71875 L 97.449219 154.40625 L 108.003906 169.90625 L 82.585938 187.214844 Z M 72.03125 171.71875 " clip-rule="nonzero"/></clipPath><clipPath id="cbd45a9233"><path d="M 72.03125 171.71875 L 97.449219 154.40625 L 108.003906 169.90625 L 82.585938 187.214844 Z M 72.03125 171.71875 " clip-rule="nonzero"/></clipPath><clipPath id="77bcca736e"><path d="M 79.769531 175.417969 L 81.46875 174.261719 L 87.875 183.667969 L 86.175781 184.824219 Z M 79.769531 175.417969 " clip-rule="nonzero"/></clipPath><clipPath id="c649141f22"><path d="M 79.769531 175.417969 L 81.46875 174.261719 L 87.851562 183.632812 L 86.152344 184.789062 Z M 79.769531 175.417969 " clip-rule="nonzero"/></clipPath></defs><g fill="#ffffff" fill-opacity="1"><g transform="translate(88.757811, 200.999987)"><g><path d="M 20.15625 -23.078125 C 19.351562 -23.984375 18.285156 -24.71875 16.953125 -25.28125 C 15.617188 -25.84375 14.101562 -26.125 12.40625 -26.125 C 9.894531 -26.125 8.066406 -25.648438 6.921875 -24.703125 C 5.773438 -23.753906 5.203125 -22.46875 5.203125 -20.84375 C 5.203125 -19.988281 5.351562 -19.285156 5.65625 -18.734375 C 5.96875 -18.191406 6.441406 -17.71875 7.078125 -17.3125 C 7.722656 -16.914062 8.546875 -16.570312 9.546875 -16.28125 C 10.546875 -15.988281 11.722656 -15.695312 13.078125 -15.40625 C 14.597656 -15.082031 15.960938 -14.71875 17.171875 -14.3125 C 18.390625 -13.914062 19.425781 -13.414062 20.28125 -12.8125 C 21.132812 -12.21875 21.785156 -11.492188 22.234375 -10.640625 C 22.691406 -9.785156 22.921875 -8.71875 22.921875 -7.4375 C 22.921875 -6.132812 22.664062 -5 22.15625 -4.03125 C 21.65625 -3.070312 20.953125 -2.273438 20.046875 -1.640625 C 19.140625 -1.003906 18.054688 -0.53125 16.796875 -0.21875 C 15.546875 0.0820312 14.175781 0.234375 12.6875 0.234375 C 8.28125 0.234375 4.476562 -1.132812 1.28125 -3.875 L 2.6875 -6.15625 C 3.1875 -5.625 3.789062 -5.117188 4.5 -4.640625 C 5.207031 -4.160156 5.992188 -3.738281 6.859375 -3.375 C 7.722656 -3.019531 8.648438 -2.738281 9.640625 -2.53125 C 10.628906 -2.332031 11.671875 -2.234375 12.765625 -2.234375 C 15.023438 -2.234375 16.785156 -2.640625 18.046875 -3.453125 C 19.316406 -4.273438 19.953125 -5.507812 19.953125 -7.15625 C 19.953125 -8.039062 19.769531 -8.78125 19.40625 -9.375 C 19.050781 -9.976562 18.515625 -10.5 17.796875 -10.9375 C 17.078125 -11.375 16.179688 -11.753906 15.109375 -12.078125 C 14.046875 -12.398438 12.8125 -12.722656 11.40625 -13.046875 C 9.90625 -13.390625 8.59375 -13.75 7.46875 -14.125 C 6.351562 -14.5 5.410156 -14.960938 4.640625 -15.515625 C 3.867188 -16.078125 3.285156 -16.75 2.890625 -17.53125 C 2.503906 -18.320312 2.3125 -19.289062 2.3125 -20.4375 C 2.3125 -21.75 2.554688 -22.914062 3.046875 -23.9375 C 3.546875 -24.96875 4.25 -25.820312 5.15625 -26.5 C 6.0625 -27.175781 7.128906 -27.691406 8.359375 -28.046875 C 9.585938 -28.410156 10.945312 -28.59375 12.4375 -28.59375 C 14.332031 -28.59375 16.019531 -28.304688 17.5 -27.734375 C 18.976562 -27.160156 20.316406 -26.351562 21.515625 -25.3125 Z M 20.15625 -23.078125 "/></g></g></g><g fill="#ffffff" fill-opacity="1"><g transform="translate(113.035398, 200.999987)"><g><path d="M 3 0 L 3 -20.84375 L 5.71875 -20.84375 L 5.71875 0 Z M 3 -25.203125 L 3 -29.203125 L 5.71875 -29.203125 L 5.71875 -25.203125 Z M 3 -25.203125 "/></g></g></g><g fill="#ffffff" fill-opacity="1"><g transform="translate(121.754536, 200.999987)"><g><path d="M 17.875 0 L 10.203125 -10.6875 L 5.71875 -6.515625 L 5.71875 0 L 3 0 L 3 -29.203125 L 5.71875 -29.203125 L 5.71875 -9.359375 L 17.4375 -20.796875 L 20.515625 -20.796875 L 12 -12.28125 L 20.84375 0 Z M 17.875 0 "/></g></g></g><g fill="#ffffff" fill-opacity="1"><g transform="translate(142.952426, 200.999987)"><g><path d="M 9.515625 0.40625 C 7.253906 0.40625 5.566406 -0.347656 4.453125 -1.859375 C 3.347656 -3.367188 2.796875 -5.613281 2.796875 -8.59375 L 2.796875 -20.84375 L 5.515625 -20.84375 L 5.515625 -9.078125 C 5.515625 -4.359375 7.128906 -2 10.359375 -2 C 11.160156 -2 11.945312 -2.128906 12.71875 -2.390625 C 13.488281 -2.660156 14.203125 -3.046875 14.859375 -3.546875 C 15.515625 -4.054688 16.101562 -4.660156 16.625 -5.359375 C 17.144531 -6.054688 17.5625 -6.84375 17.875 -7.71875 L 17.875 -20.84375 L 20.59375 -20.84375 L 20.59375 -3.515625 C 20.59375 -2.773438 20.914062 -2.40625 21.5625 -2.40625 L 21.5625 0 C 21.238281 0.0507812 20.976562 0.078125 20.78125 0.078125 C 20.582031 0.078125 20.441406 0.078125 20.359375 0.078125 C 19.722656 0.0546875 19.203125 -0.164062 18.796875 -0.59375 C 18.398438 -1.019531 18.203125 -1.59375 18.203125 -2.3125 L 18.203125 -4.71875 C 17.296875 -3.09375 16.0625 -1.832031 14.5 -0.9375 C 12.9375 -0.0390625 11.273438 0.40625 9.515625 0.40625 Z M 9.515625 0.40625 "/></g></g></g><g fill="#ffffff" fill-opacity="1"><g transform="translate(166.710061, 200.999987)"><g><path d="M 34 0 L 31.28125 0 L 31.28125 -11.640625 C 31.28125 -14.066406 30.890625 -15.851562 30.109375 -17 C 29.335938 -18.144531 28.195312 -18.71875 26.6875 -18.71875 C 25.882812 -18.71875 25.128906 -18.570312 24.421875 -18.28125 C 23.710938 -17.988281 23.054688 -17.570312 22.453125 -17.03125 C 21.859375 -16.5 21.332031 -15.867188 20.875 -15.140625 C 20.425781 -14.410156 20.082031 -13.601562 19.84375 -12.71875 L 19.84375 0 L 17.125 0 L 17.125 -11.640625 C 17.125 -14.117188 16.75 -15.914062 16 -17.03125 C 15.25 -18.15625 14.101562 -18.71875 12.5625 -18.71875 C 10.988281 -18.71875 9.585938 -18.171875 8.359375 -17.078125 C 7.128906 -15.984375 6.25 -14.546875 5.71875 -12.765625 L 5.71875 0 L 3 0 L 3 -20.84375 L 5.484375 -20.84375 L 5.484375 -16.125 C 6.335938 -17.71875 7.457031 -18.960938 8.84375 -19.859375 C 10.226562 -20.753906 11.757812 -21.203125 13.4375 -21.203125 C 15.195312 -21.203125 16.601562 -20.707031 17.65625 -19.71875 C 18.707031 -18.726562 19.351562 -17.4375 19.59375 -15.84375 C 21.539062 -19.414062 24.222656 -21.203125 27.640625 -21.203125 C 28.816406 -21.203125 29.8125 -20.988281 30.625 -20.5625 C 31.4375 -20.132812 32.085938 -19.523438 32.578125 -18.734375 C 33.066406 -17.953125 33.425781 -17.003906 33.65625 -15.890625 C 33.882812 -14.785156 34 -13.554688 34 -12.203125 Z M 34 0 "/></g></g></g><g fill="#ffffff" fill-opacity="1"><g transform="translate(203.466411, 200.999987)"><g><path d="M 11.875 0.40625 C 10.351562 0.40625 8.96875 0.117188 7.71875 -0.453125 C 6.46875 -1.023438 5.378906 -1.804688 4.453125 -2.796875 C 3.535156 -3.785156 2.820312 -4.929688 2.3125 -6.234375 C 1.8125 -7.546875 1.5625 -8.921875 1.5625 -10.359375 C 1.5625 -11.828125 1.820312 -13.210938 2.34375 -14.515625 C 2.863281 -15.828125 3.582031 -16.972656 4.5 -17.953125 C 5.414062 -18.941406 6.5 -19.726562 7.75 -20.3125 C 9.007812 -20.90625 10.382812 -21.203125 11.875 -21.203125 C 13.375 -21.203125 14.753906 -20.90625 16.015625 -20.3125 C 17.285156 -19.726562 18.378906 -18.941406 19.296875 -17.953125 C 20.222656 -16.972656 20.941406 -15.828125 21.453125 -14.515625 C 21.972656 -13.210938 22.234375 -11.828125 22.234375 -10.359375 C 22.234375 -8.921875 21.976562 -7.546875 21.46875 -6.234375 C 20.96875 -4.929688 20.253906 -3.785156 19.328125 -2.796875 C 18.410156 -1.804688 17.316406 -1.023438 16.046875 -0.453125 C 14.785156 0.117188 13.394531 0.40625 11.875 0.40625 Z M 4.3125 -10.3125 C 4.3125 -9.144531 4.507812 -8.0625 4.90625 -7.0625 C 5.3125 -6.0625 5.851562 -5.179688 6.53125 -4.421875 C 7.21875 -3.660156 8.019531 -3.066406 8.9375 -2.640625 C 9.851562 -2.210938 10.832031 -2 11.875 -2 C 12.914062 -2 13.894531 -2.21875 14.8125 -2.65625 C 15.738281 -3.09375 16.546875 -3.691406 17.234375 -4.453125 C 17.929688 -5.210938 18.476562 -6.097656 18.875 -7.109375 C 19.28125 -8.128906 19.484375 -9.226562 19.484375 -10.40625 C 19.484375 -11.550781 19.28125 -12.632812 18.875 -13.65625 C 18.476562 -14.6875 17.929688 -15.582031 17.234375 -16.34375 C 16.546875 -17.101562 15.738281 -17.703125 14.8125 -18.140625 C 13.894531 -18.578125 12.914062 -18.796875 11.875 -18.796875 C 10.832031 -18.796875 9.859375 -18.578125 8.953125 -18.140625 C 8.046875 -17.703125 7.242188 -17.09375 6.546875 -16.3125 C 5.859375 -15.539062 5.3125 -14.640625 4.90625 -13.609375 C 4.507812 -12.585938 4.3125 -11.488281 4.3125 -10.3125 Z M 4.3125 -10.3125 "/></g></g></g><g fill="#ffffff" fill-opacity="1"><g transform="translate(227.264043, 200.999987)"><g><path d="M 20.515625 0 L 17.796875 0 L 17.796875 -11.640625 C 17.796875 -14.117188 17.425781 -15.914062 16.6875 -17.03125 C 15.957031 -18.15625 14.832031 -18.71875 13.3125 -18.71875 C 12.519531 -18.71875 11.722656 -18.570312 10.921875 -18.28125 C 10.117188 -17.988281 9.378906 -17.570312 8.703125 -17.03125 C 8.023438 -16.5 7.414062 -15.867188 6.875 -15.140625 C 6.34375 -14.410156 5.957031 -13.617188 5.71875 -12.765625 L 5.71875 0 L 3 0 L 3 -20.84375 L 5.484375 -20.84375 L 5.484375 -16.125 C 6.335938 -17.644531 7.554688 -18.867188 9.140625 -19.796875 C 10.722656 -20.734375 12.445312 -21.203125 14.3125 -21.203125 C 15.46875 -21.203125 16.441406 -20.988281 17.234375 -20.5625 C 18.035156 -20.132812 18.675781 -19.53125 19.15625 -18.75 C 19.632812 -17.976562 19.976562 -17.03125 20.1875 -15.90625 C 20.40625 -14.789062 20.515625 -13.554688 20.515625 -12.203125 Z M 20.515625 0 "/></g></g></g><g fill="#ffffff" fill-opacity="1"><g transform="translate(250.581722, 200.999987)"><g><path d="M 12 0.40625 C 10.476562 0.40625 9.082031 0.117188 7.8125 -0.453125 C 6.550781 -1.023438 5.453125 -1.8125 4.515625 -2.8125 C 3.585938 -3.8125 2.863281 -4.960938 2.34375 -6.265625 C 1.820312 -7.578125 1.5625 -8.984375 1.5625 -10.484375 C 1.5625 -11.953125 1.820312 -13.332031 2.34375 -14.625 C 2.863281 -15.914062 3.582031 -17.046875 4.5 -18.015625 C 5.414062 -18.992188 6.515625 -19.769531 7.796875 -20.34375 C 9.078125 -20.914062 10.460938 -21.203125 11.953125 -21.203125 C 13.472656 -21.203125 14.867188 -20.914062 16.140625 -20.34375 C 17.410156 -19.769531 18.5 -18.988281 19.40625 -18 C 20.3125 -17.007812 21.015625 -15.875 21.515625 -14.59375 C 22.023438 -13.320312 22.28125 -11.960938 22.28125 -10.515625 C 22.28125 -10.304688 22.28125 -10.09375 22.28125 -9.875 C 22.28125 -9.664062 22.265625 -9.519531 22.234375 -9.4375 L 4.40625 -9.4375 C 4.476562 -8.320312 4.734375 -7.289062 5.171875 -6.34375 C 5.617188 -5.394531 6.1875 -4.570312 6.875 -3.875 C 7.570312 -3.1875 8.363281 -2.648438 9.25 -2.265625 C 10.144531 -1.878906 11.101562 -1.6875 12.125 -1.6875 C 12.789062 -1.6875 13.457031 -1.773438 14.125 -1.953125 C 14.789062 -2.140625 15.398438 -2.394531 15.953125 -2.71875 C 16.515625 -3.039062 17.019531 -3.429688 17.46875 -3.890625 C 17.925781 -4.359375 18.273438 -4.875 18.515625 -5.4375 L 20.875 -4.796875 C 20.5625 -4.023438 20.109375 -3.328125 19.515625 -2.703125 C 18.929688 -2.078125 18.25 -1.53125 17.46875 -1.0625 C 16.695312 -0.59375 15.84375 -0.234375 14.90625 0.015625 C 13.976562 0.273438 13.007812 0.40625 12 0.40625 Z M 19.6875 -11.515625 C 19.601562 -12.640625 19.335938 -13.660156 18.890625 -14.578125 C 18.453125 -15.492188 17.894531 -16.285156 17.21875 -16.953125 C 16.539062 -17.617188 15.753906 -18.140625 14.859375 -18.515625 C 13.960938 -18.890625 13.007812 -19.078125 12 -19.078125 C 10.988281 -19.078125 10.03125 -18.890625 9.125 -18.515625 C 8.21875 -18.140625 7.421875 -17.617188 6.734375 -16.953125 C 6.054688 -16.285156 5.507812 -15.484375 5.09375 -14.546875 C 4.6875 -13.617188 4.441406 -12.609375 4.359375 -11.515625 Z M 19.6875 -11.515625 "/></g></g></g><g fill="#ffffff" fill-opacity="1"><g transform="translate(274.059389, 200.999987)"><g><path d="M 13 -1 C 12.84375 -0.914062 12.609375 -0.804688 12.296875 -0.671875 C 11.992188 -0.546875 11.640625 -0.414062 11.234375 -0.28125 C 10.835938 -0.144531 10.382812 -0.0234375 9.875 0.078125 C 9.375 0.179688 8.84375 0.234375 8.28125 0.234375 C 7.695312 0.234375 7.132812 0.15625 6.59375 0 C 6.0625 -0.15625 5.59375 -0.398438 5.1875 -0.734375 C 4.789062 -1.066406 4.472656 -1.488281 4.234375 -2 C 3.992188 -2.507812 3.875 -3.097656 3.875 -3.765625 L 3.875 -18.6875 L 1 -18.6875 L 1 -20.84375 L 3.875 -20.84375 L 3.875 -27.875 L 6.59375 -27.875 L 6.59375 -20.84375 L 11.40625 -20.84375 L 11.40625 -18.6875 L 6.59375 -18.6875 L 6.59375 -4.515625 C 6.65625 -3.742188 6.929688 -3.175781 7.421875 -2.8125 C 7.910156 -2.457031 8.476562 -2.28125 9.125 -2.28125 C 9.894531 -2.28125 10.570312 -2.40625 11.15625 -2.65625 C 11.75 -2.914062 12.125 -3.097656 12.28125 -3.203125 Z M 13 -1 "/></g></g></g><g clip-path="url(#3cee537a4a)"><g clip-path="url(#f33a79a62c)"><g clip-path="url(#a752370f6c)"><g clip-path="url(#e0b6908d67)"><g clip-path="url(#94e2fa5f79)"><path fill="#000000" d="M 78.6875 171.527344 L 78.6875 171.523438 M 100.574219 159.089844 L 100.578125 159.085938 L 100.570312 159.09375 L 93.40625 160.890625 L 93.398438 160.890625 L 93.394531 160.894531 L 88.445312 162.136719 L 88.441406 162.132812 L 88.433594 162.140625 L 84.738281 163.066406 L 84.738281 163.0625 L 81.179688 168.039062 L 78.6875 171.523438 L 75.238281 176.34375 L 82.722656 174.464844 L 83.03125 174.386719 L 87.363281 173.300781 L 91.078125 172.367188 L 93.617188 168.816406 L 95.902344 165.621094 L 96.5 164.789062 L 100.574219 159.09375 L 100.578125 159.089844 L 100.574219 159.089844 " fill-opacity="1" fill-rule="nonzero"/></g></g></g></g></g><g clip-path="url(#06260fec31)"><g clip-path="url(#f89a6f6618)"><g clip-path="url(#03547effc8)"><path fill="#000000" d="M 83.390625 174.917969 L 85.089844 177.40625 C 85.089844 177.410156 85.089844 177.410156 85.09375 177.414062 C 85.796875 178.449219 87.148438 178.902344 88.769531 178.796875 C 90.402344 178.691406 92.308594 178.015625 94.097656 176.800781 C 94.324219 176.644531 94.546875 176.480469 94.761719 176.316406 C 96.417969 175.03125 97.597656 173.484375 98.136719 172.023438 C 98.601562 170.753906 98.582031 169.554688 97.964844 168.648438 C 97.964844 168.644531 97.960938 168.644531 97.960938 168.640625 L 96.265625 166.152344 L 91.4375 172.898438 L 83.390625 174.917969 " fill-opacity="1" fill-rule="nonzero"/></g></g></g><g clip-path="url(#cc4a31907a)"><g clip-path="url(#1e03b95d1c)"><g clip-path="url(#cbd45a9233)"><g clip-path="url(#77bcca736e)"><g clip-path="url(#c649141f22)"><path fill="#000000" d="M 85.976562 181.386719 L 85.949219 181.355469 L 84.289062 179.363281 L 84.214844 179.277344 L 83.414062 178.316406 L 83.5 178.257812 L 82.722656 177.117188 C 82.765625 176.933594 82.738281 176.738281 82.625 176.570312 C 82.570312 176.484375 82.496094 176.417969 82.410156 176.371094 C 82.273438 176.289062 82.113281 176.261719 81.957031 176.285156 L 81.011719 174.894531 L 80.378906 175.054688 L 81.457031 176.632812 C 81.332031 176.851562 81.332031 177.128906 81.484375 177.347656 C 81.597656 177.515625 81.769531 177.613281 81.957031 177.636719 L 82.734375 178.78125 L 82.828125 178.71875 L 83.1875 179.375 L 83.628906 180.191406 L 84.726562 182.203125 L 84.730469 182.210938 L 85.324219 183.304688 L 85.859375 184.277344 C 85.871094 184.300781 85.882812 184.324219 85.902344 184.339844 C 86.101562 184.570312 86.617188 184.496094 87.050781 184.175781 C 87.484375 183.855469 87.675781 183.410156 87.472656 183.179688 L 85.976562 181.386719 " fill-opacity="1" fill-rule="nonzero"/></g></g></g></g></g></svg>